HIERARCHY
ROOT Hips
{
 OFFSET 0.000000 0.000000 0.000000
 CHANNELS 6 Xposition Yposition Zposition Yrotation Xrotation Zrotation
 JOINT Chest
 {
  OFFSET 0.000000 9.585900 0.002600
  CHANNELS 3 Yrotation Xrotation Zrotation
  JOINT Chest2
  {
   OFFSET 0.000000 9.601200 -0.005300
   CHANNELS 3 Yrotation Xrotation Zrotation
   JOINT Chest3
   {
    OFFSET 0.000000 9.561800 0.000000
    CHANNELS 3 Yrotation Xrotation Zrotation
    JOINT Chest4
    {
     OFFSET 0.000000 9.552100 0.000000
     CHANNELS 3 Yrotation Xrotation Zrotation
     JOINT Neck
     {
      OFFSET 0.000000 14.453000 0.000000
      CHANNELS 3 Yrotation Xrotation Zrotation
      JOINT Head
      {
       OFFSET 0.000000 8.936500 -0.011300
       CHANNELS 3 Yrotation Xrotation Zrotation
       End Site
       {
        OFFSET 0.000000 17.073600 -0.006000
       }
      }
     }
     JOINT RightCollar
     {
      OFFSET -2.921100 9.558500 0.000000
      CHANNELS 3 Yrotation Xrotation Zrotation
      JOINT RightShoulder
      {
       OFFSET -13.519700 0.000000 0.000000
       CHANNELS 3 Yrotation Xrotation Zrotation
       JOINT RightElbow
       {
        OFFSET 0.000000 -29.696600 0.000000
        CHANNELS 3 Yrotation Xrotation Zrotation
        JOINT RightWrist
        {
         OFFSET 0.000000 -24.004700 0.000000
         CHANNELS 3 Yrotation Xrotation Zrotation
         End Site
         {
          OFFSET 0.000000 -17.728500 0.000000
         }
        }
       }
      }
     }
     JOINT LeftCollar
     {
      OFFSET 2.921100 9.558500 0.000000
      CHANNELS 3 Yrotation Xrotation Zrotation
      JOINT LeftShoulder
      {
       OFFSET 13.519700 0.000000 0.000000
       CHANNELS 3 Yrotation Xrotation Zrotation
       JOINT LeftElbow
       {
        OFFSET 0.000000 -29.696600 0.000000
        CHANNELS 3 Yrotation Xrotation Zrotation
        JOINT LeftWrist
        {
         OFFSET 0.000000 -24.004700 0.000000
         CHANNELS 3 Yrotation Xrotation Zrotation
         End Site
         {
          OFFSET 0.000000 -17.728500 0.000000
         }
        }
       }
      }
     }
    }
   }
  }
 }
 JOINT RightHip
 {
  OFFSET -7.771700 -0.012900 -0.001300
  CHANNELS 3 Yrotation Xrotation Zrotation
  JOINT RightKnee
  {
   OFFSET 0.000000 -40.869800 0.001200
   CHANNELS 3 Yrotation Xrotation Zrotation
   JOINT RightAnkle
   {
    OFFSET 0.000000 -39.717900 0.002100
    CHANNELS 3 Yrotation Xrotation Zrotation
    JOINT RightToe
    {
     OFFSET 0.000000 -4.965400 11.033500
     CHANNELS 3 Yrotation Xrotation Zrotation
     End Site
     {
      OFFSET 0.000000 -1.423100 5.872300
     }
    }
   }
  }
 }
 JOINT LeftHip
 {
  OFFSET 7.771700 -0.012900 -0.001300
  CHANNELS 3 Yrotation Xrotation Zrotation
  JOINT LeftKnee
  {
   OFFSET 0.000000 -40.869800 0.001200
   CHANNELS 3 Yrotation Xrotation Zrotation
   JOINT LeftAnkle
   {
    OFFSET 0.000000 -39.717900 0.002100
    CHANNELS 3 Yrotation Xrotation Zrotation
    JOINT LeftToe
    {
     OFFSET 0.000000 -4.965400 11.033500
     CHANNELS 3 Yrotation Xrotation Zrotation
     End Site
     {
      OFFSET 0.000000 -1.423100 5.872300
     }
    }
   }
  }
 }
}
MOTION
Frames: 12
Frame Time: 0.008333
-25.970118 43.706045 25.384062 175.176513 -24.853897 1.274514 -1.338454 18.512609 2.402278 -0.201660 2.166857 0.369297 -0.325703 3.578370 0.606008 -1.175644 16.156006 2.617284 1.717368 12.073121 -6.878519 3.469636 -12.896185 -8.014809 8.116256 3.834623 -6.329073 -10.329360 -7.176789 -4.215813 179.826560 -62.911567 -163.939598 -1.739150 -0.222565 -34.187279 -9.570842 -0.070279 -5.363946 14.012778 -0.872555 2.802342 -163.802927 -52.321237 151.361279 6.039149 5.917822 24.069561 1.419689 -66.637565 6.059413 -155.512341 66.251868 -153.792100 -9.274437 -25.330435 7.824760 0.317871 -1.120818 0.202399 7.427803 -49.452799 -2.150242 177.815635 57.290125 177.406691 -2.000607 -42.821153 2.610171 0.030709 0.083356 0.026338
-25.978454 43.703101 25.385927 175.148065 -24.813595 1.250368 -1.312627 18.472665 2.437090 -0.208373 2.162760 0.370075 -0.321861 3.577069 0.607680 -1.177293 16.153135 2.619850 1.694943 12.070679 -6.922524 3.471187 -12.890121 -8.080330 8.182629 3.746373 -6.392798 -10.147232 -7.330005 -4.360843 -179.350556 -63.087389 -164.687868 -1.816712 -0.068132 -34.183185 -9.630644 -0.185549 -5.322504 14.024278 -0.989226 3.016703 -163.784562 -52.228032 151.447619 6.030961 5.938222 24.004821 1.409263 -66.678446 6.097047 -155.356398 66.252880 -153.650661 -9.159451 -25.250134 7.787622 0.281686 -1.159542 0.220334 7.422582 -49.496962 -2.107221 177.836944 57.282765 177.419430 -1.997584 -42.827546 2.615628 0.029509 0.086590 0.030592
-25.988774 43.703090 25.382634 175.150351 -24.806804 1.220520 -1.326309 18.463618 2.458558 -0.198426 2.163285 0.372452 -0.316763 3.577989 0.608316 -1.200586 16.135675 2.636020 1.681830 12.076801 -6.980904 3.471599 -12.883763 -8.150935 8.244289 3.688681 -6.459822 -9.989291 -7.492321 -4.531604 -178.469122 -63.242277 -165.460979 -1.893528 0.090270 -34.127417 -9.672196 -0.289229 -5.296099 14.068533 -1.100327 3.219520 -163.779612 -52.124783 151.532421 6.019970 5.937364 23.917289 1.398958 -66.683918 6.100585 -155.359348 66.265194 -153.641023 -9.114950 -25.171579 7.737607 0.276167 -1.191050 0.239179 7.406394 -49.503845 -2.085020 177.822096 57.277612 177.408299 -2.001013 -42.834704 2.621639 0.028186 0.089146 0.029317
-25.996968 43.701991 25.383039 175.133028 -24.776042 1.179746 -1.320755 18.431156 2.496173 -0.184022 2.163589 0.377084 -0.329541 3.568428 0.610310 -1.207995 16.123076 2.646871 1.642720 12.067979 -7.072121 3.496230 -12.857840 -8.195948 8.304506 3.635744 -6.522632 -9.861015 -7.639966 -4.717265 -177.554878 -63.375782 -166.241019 -1.970798 0.257224 -34.025114 -9.702290 -0.380464 -5.269181 14.138588 -1.207025 3.407282 -163.790892 -52.017394 151.611909 6.008020 5.911510 23.826228 1.455413 -66.709712 6.054786 -155.421932 66.289439 -153.653379 -9.035438 -25.162937 7.701116 0.216501 -1.150475 0.222464 7.417610 -49.540552 -2.057502 177.804064 57.267205 177.412209 -1.994490 -42.838415 2.619331 0.027147 0.087480 0.031764
-26.006470 43.702506 25.381170 175.120556 -24.758926 1.143956 -1.305548 18.414578 2.533646 -0.195486 2.156420 0.376730 -0.349813 3.548809 0.610177 -1.211169 16.099028 2.668475 1.643042 12.107304 -7.150082 3.495036 -12.839747 -8.264155 8.375292 3.610348 -6.593439 -9.759804 -7.770742 -4.915241 -176.628521 -63.485365 -167.016666 -2.049652 0.429950 -33.879589 -9.688476 -0.387956 -5.285254 14.198926 -1.364950 3.592011 -163.822792 -51.912304 151.694922 6.000405 5.862471 23.742897 1.407567 -66.725383 6.117884 -155.410813 66.305391 -153.633881 -9.036137 -25.087586 7.670043 0.229786 -1.153754 0.229425 7.409622 -49.560952 -2.016766 177.842277 57.259719 177.449949 -1.982315 -42.838030 2.621994 0.025703 0.086170 0.035346
-26.015244 43.702761 25.381086 175.103570 -24.729392 1.105320 -1.283763 18.386679 2.575925 -0.220545 2.146724 0.369977 -0.331622 3.546678 0.616952 -1.218480 16.075647 2.684442 1.620917 12.131477 -7.228374 3.497116 -12.813330 -8.321444 8.426502 3.567854 -6.656788 -9.688862 -7.887556 -5.122500 -175.689959 -63.575312 -167.784883 -2.131189 0.594317 -33.696353 -9.718833 -0.471677 -5.250260 14.313851 -1.448812 3.743844 -163.877128 -51.816568 151.787864 5.999907 5.794536 23.668043 1.351447 -66.750446 6.193880 -155.428086 66.329419 -153.634626 -9.069619 -25.039583 7.650423 0.248253 -1.067005 0.202337 7.406563 -49.596004 -1.980846 177.829443 57.250639 177.449590 -1.982925 -42.837960 2.622621 0.027515 0.080236 0.039682
-26.024676 43.704383 25.379067 175.101673 -24.711405 1.067853 -1.297584 18.370574 2.594104 -0.205362 2.142713 0.377119 -0.330132 3.541895 0.620393 -1.220925 16.059119 2.696549 1.601167 12.157648 -7.289529 3.490888 -12.783512 -8.386520 8.465680 3.517066 -6.716265 -9.644512 -7.992154 -5.337467 -174.736420 -63.645210 -168.547487 -2.216442 0.739359 -33.490190 -9.744577 -0.545688 -5.217160 14.432041 -1.540305 3.886644 -163.946929 -51.732276 151.885805 6.001224 5.709195 23.601042 1.329327 -66.754658 6.217119 -155.465259 66.351266 -153.647521 -9.086285 -25.030548 7.644758 0.249572 -1.032556 0.195119 7.382893 -49.617520 -1.942741 177.827149 57.244048 177.448355 -1.983799 -42.838263 2.626813 0.027807 0.075526 0.042800
-26.033833 43.707059 25.375528 175.104348 -24.702656 1.031737 -1.294642 18.363828 2.622702 -0.204003 2.139998 0.379936 -0.328603 3.540551 0.622698 -1.225139 16.044699 2.704229 1.579990 12.182516 -7.346024 3.483859 -12.749450 -8.447540 8.496235 3.460699 -6.768986 -9.621174 -8.083413 -5.561560 -173.771384 -63.691565 -169.307605 -2.303206 0.859954 -33.281773 -9.757495 -0.589593 -5.198863 14.541323 -1.657497 4.023065 -164.020672 -51.658399 151.984717 5.999968 5.616113 23.537095 1.301844 -66.751916 6.236985 -155.505604 66.365375 -153.667920 -9.090461 -25.024933 7.640269 0.253438 -1.000927 0.184993 7.358927 -49.625982 -1.904273 177.854917 57.240229 177.469861 -1.973504 -42.843360 2.641040 0.025628 0.077598 0.037939
-26.042807 43.709283 25.373473 175.111063 -24.683747 0.997275 -1.291107 18.346309 2.653957 -0.205450 2.138744 0.378485 -0.331827 3.533709 0.621525 -1.219891 16.046902 2.710644 1.568877 12.192923 -7.372521 3.471952 -12.705039 -8.524146 8.509078 3.430007 -6.792766 -9.610619 -8.197146 -5.807818 -172.808505 -63.716000 -170.056328 -2.388900 0.948007 -33.089339 -9.763701 -0.611014 -5.188762 14.649039 -1.795133 4.150093 -164.088908 -51.588647 152.083320 5.996569 5.534432 23.463229 1.299281 -66.741715 6.201994 -155.585402 66.397626 -153.715654 -9.041306 -25.085146 7.631132 0.213012 -0.920508 0.152845 7.357184 -49.648730 -1.896544 177.839193 57.234583 177.471556 -1.968056 -42.838862 2.636801 0.025485 0.074348 0.040238
-26.052897 43.712466 25.369442 175.155808 -24.677811 0.960280 -1.332465 18.342178 2.662133 -0.205306 2.134805 0.379253 -0.329394 3.523718 0.614312 -1.219655 16.038430 2.728690 1.563371 12.219773 -7.400961 3.462279 -12.659108 -8.594980 8.542309 3.374939 -6.849195 -9.631226 -8.239611 -6.030503 -171.867417 -63.717328 -170.779296 -2.471334 1.004526 -32.923641 -9.761702 -0.613536 -5.184618 14.771441 -1.919253 4.258002 -164.141722 -51.513290 152.176550 5.992223 5.477425 23.366497 1.242379 -66.728406 6.192674 -155.601690 66.386908 -153.704706 -9.043174 -25.146483 7.631142 0.236640 -0.875473 0.141955 7.386416 -49.660043 -1.955540 177.762927 57.230092 177.452364 -1.961939 -42.827806 2.622629 0.018607 0.077746 0.034369
-26.062979 43.714894 25.366985 175.161648 -24.661722 0.944283 -1.319334 18.338473 2.661321 -0.215288 2.123453 0.390157 -0.328375 3.520651 0.618683 -1.224481 16.022403 2.731724 1.538162 12.259616 -7.471733 3.459545 -12.635611 -8.616965 8.572456 3.323780 -6.904153 -9.663059 -8.266297 -6.248624 -170.962761 -63.695502 -171.468218 -2.545084 1.042927 -32.789710 -9.759807 -0.650255 -5.154368 14.905824 -1.990892 4.329351 -164.159486 -51.429894 152.250123 5.987663 5.448248 23.250316 1.221247 -66.729012 6.183575 -155.640741 66.399567 -153.736127 -9.034390 -25.184206 7.633929 0.215861 -0.846174 0.131350 7.418008 -49.675288 -1.985066 177.747819 57.228448 177.459196 -1.951967 -42.821451 2.622271 0.015047 0.075176 0.034733
-26.077780 43.716581 25.365808 175.161083 -24.636402 0.963399 -1.308336 18.321376 2.638166 -0.205959 2.123093 0.379958 -0.347241 3.510476 0.633649 -1.224296 16.008368 2.730592 1.528289 12.282085 -7.488333 3.456214 -12.619887 -8.637264 8.590648 3.286200 -6.944651 -9.693211 -8.290039 -6.468217 -170.119390 -63.652542 -172.104799 -2.608458 1.078224 -32.689641 -9.761319 -0.642110 -5.146889 15.032053 -2.099347 4.390797 -164.126705 -51.342753 152.296494 5.979582 5.443859 23.130292 1.275409 -66.739577 6.105759 -155.654701 66.407707 -153.741950 -9.101486 -25.242665 7.698116 0.274505 -0.788847 0.092618 7.495157 -49.693869 -2.070209 177.730414 57.233535 177.459730 -1.946402 -42.810045 2.632159 0.013813 0.072950 0.031695
